<?xml version="1.0" encoding="utf-8"?>
<!-- Generator: Adobe Illustrator 19.0.0, SVG Export Plug-In . SVG Version: 6.00 Build 0)  -->
<svg version="1.1" id="图形" xmlns="http://www.w3.org/2000/svg" xmlns:xlink="http://www.w3.org/1999/xlink" x="0px" y="0px"
	 viewBox="214 -92.1 1024 1024" style="enable-background:new 214 -92.1 1024 1024;" xml:space="preserve">
<style type="text/css">
	.st0{fill:#FFFFFF;}
</style>
<path class="st0" d="M917.8,257.1c-58.1,0-112.4,12.6-162.8,37.8s-90.4,59.4-120.1,102.7c-29.7,43.3-44.6,90.1-44.6,140.5
	c0,27.1,4.5,53,13.6,77.5c-6.5,0-12.3,0-17.4,0c-42.6,0-84-5.8-124-17.4l-124,56.2l29.1-102.7c-42.6-28.4-76.2-63.3-100.8-104.6
	c-24.5-41.3-36.8-85.9-36.8-133.7c0-82.6,34.9-153.7,104.6-213.1c69.7-59.4,153.7-89.1,251.9-89.1c85.2,0,160.8,23.2,226.7,69.7
	s106.6,105.3,122.1,176.3C930.1,257.1,924.3,257.1,917.8,257.1z M432.5,246.5c9.7,9.7,21.6,14.5,35.8,14.5
	c14.2,0,26.2-4.8,35.8-14.5c9.7-9.7,14.5-21.6,14.5-35.8c0-14.2-4.8-26.2-14.5-35.8c-9.7-9.7-21.6-14.5-35.8-14.5
	c-14.2,0-26.2,4.8-35.8,14.5s-14.5,21.6-14.5,35.8C417.9,224.9,422.8,236.8,432.5,246.5z M1222,538.1c0,84-38.8,151.8-116.3,203.4
	l23.2,87.2l-104.6-48.4c-33.6,10.3-69.1,15.5-106.6,15.5c-82.7,0-153.7-25.2-213.1-75.6c-59.4-50.4-89.1-111.1-89.1-182.1
	c0-46.5,13.6-89.4,40.7-128.8c27.1-39.4,63.9-70.4,110.4-93c46.5-22.6,96.9-33.9,151.1-33.9c84,0,155.6,24.9,215.1,74.6
	C1192.3,406.6,1222,467,1222,538.1z M740.5,174.8c-9.7-9.7-21.3-14.5-34.9-14.5s-25.2,4.8-34.9,14.5s-14.5,21.3-14.5,34.9
	s4.8,25.2,14.5,34.9s21.3,14.5,34.9,14.5s25.2-4.8,34.9-14.5s14.5-21.3,14.5-34.9S750.2,184.5,740.5,174.8z M817.1,491.6
	c11.6,0,21.6-4.2,30-12.6c8.4-8.4,12.6-18.1,12.6-29.1c0-11-4.2-20.6-12.6-29.1c-8.4-8.4-18.4-12.6-30-12.6s-21.6,4.2-30,12.6
	c-8.4,8.4-12.6,17.8-12.6,28.1c0,7.7,1.9,14.9,5.8,21.3c3.9,6.4,9,11.6,15.5,15.5C802.2,489.6,809.3,491.6,817.1,491.6z
	 M988.5,480.9c8.4,8.4,18.7,12.6,31,12.6s22.6-4.2,31-12.6c8.4-8.4,12.6-18.4,12.6-30s-4.2-21.6-12.6-30c-8.4-8.4-18.7-12.6-31-12.6
	s-22.6,4.2-31,12.6c-8.4,8.4-12.6,18.4-12.6,30S980.1,472.5,988.5,480.9z"/>
</svg>
