<?xml version="1.0" encoding="utf-8"?>
<!-- Generator: Adobe Illustrator 19.0.0, SVG Export Plug-In . SVG Version: 6.00 Build 0)  -->
<svg version="1.1" id="图形" xmlns="http://www.w3.org/2000/svg" xmlns:xlink="http://www.w3.org/1999/xlink" x="0px" y="0px"
	 viewBox="215 -92.1 1025 1024" style="enable-background:new 215 -92.1 1025 1024;" xml:space="preserve">
<style type="text/css">
	.st0{fill:#FFFFFF;}
</style>
<path class="st0" d="M600.7,641.6c8-13,10.1-26.1,6.3-39.4s-12.4-22.9-25.7-28.6c-13-5.3-26.9-5.5-41.7-0.6s-26.3,13.7-34.3,26.3
	c-8.4,13-10.9,26-7.4,39.1c3.4,13.1,11.6,22.8,24.6,28.9c13,6.1,27.1,6.6,42.6,1.4C580.4,663.6,592.3,654.6,600.7,641.6L600.7,641.6
	z M654.4,572.5c3-5,3.7-10,2-15.1c-1.7-5.1-5-8.7-10-10.6c-5.3-1.9-10.8-1-16.3,2.9c-5.5,3.8-9.6,7.3-12.3,10.6
	c-6.5,11.8-4,20.4,7.4,25.7c5.3,1.9,10.9,2.9,16.6,2.9s9.9-3.5,12.6-10.6V572.5z M753.9,633.6c-17.1,38.9-47.2,67.4-90.3,85.7
	c-43,18.3-85.7,20.6-128,6.9c-40.8-13-68.9-37-84.3-72.3s-14.2-71,3.7-107.1c17.9-35.4,46.8-61.9,86.6-79.4s79.9-21.1,120.3-10.9
	c42.3,11,72.5,33.8,90.6,68.3C770.5,559.2,771,595.5,753.9,633.6L753.9,633.6z M932.1,542.2c-3.4-36.6-20.4-69-50.9-97.1
	s-70.2-49-119.1-62.3c-49-13.3-101.2-17.3-156.9-12c-85,8.8-155.3,35.7-211.1,80.9s-81,95.5-75.7,151.1c3.4,36.6,20.4,69,50.9,97.1
	c30.5,28.2,70.2,49,119.1,62.3s101.2,17.3,156.9,12c85-8.8,155.3-35.7,211.1-80.9C912.2,648.2,937.5,597.8,932.1,542.2L932.1,542.2z
	 M1108.1,544.5c0,25.9-7,52.5-21.1,79.7s-34.9,53.3-62.3,78.3c-27.4,25-59.5,47.3-96.3,67.1c-36.8,19.8-79.8,35.6-129.1,47.4
	s-100.9,17.7-154.6,17.7s-106.1-6.4-157.1-19.1c-51-12.8-96.9-30.5-137.4-53.1s-73.2-51.4-98-86.3c-24.8-34.9-37.1-72.9-37.1-114
	c0-43.8,13.2-90.5,39.7-140s64.1-98.7,112.9-147.4C432,210.4,497,165.4,562.7,139.9s112.7-24.2,140.9,4
	c24.8,24.4,28.6,64.2,11.4,119.4c-1.5,5.3-1.7,9.1-0.6,11.4s3,3.6,5.7,4c2.7,0.4,5.4,1.3,8.3,2.9c2.9,1.5,5.4,0.9,7.7-2l3.4-1.1
	c53-22.5,99.8-33.7,140.6-33.7c40.8,0,69.9,11.6,87.4,34.9c17.1,24,17.1,57.9,0,101.7c-0.8,5-1.6,8.8-2.6,11.4c-1,2.7-0.1,5,2.6,7.1
	s5,3.5,6.9,4.3s5.1,1.9,9.7,3.4c21.7,6.9,41.3,15.8,58.9,26.9c17.5,11,32.8,26.6,45.7,46.6c13,20,19.4,42.2,19.4,66.6L1108.1,544.5z
	 M1065.9,187.9c16,17.9,26.4,38.6,31.1,62s3.5,45.8-3.7,67.1c-3,8.8-8.7,15.2-16.9,19.4s-16.7,5-25.4,2.3c-8.8-3-15.2-8.7-19.4-16.9
	c-4.2-8.2-5-16.7-2.3-25.4c7.6-24,3-45.1-13.7-63.4c-16.8-18.3-37.1-25-61.1-20c-9.1,1.9-17.7,0.4-25.7-4.6s-12.8-12-14.3-21.1
	c-1.9-9.1-0.4-17.6,4.6-25.4c5-7.8,12-12.7,21.1-14.6c22.9-5,45.5-3.9,68,3.1C1030.6,157.5,1049.9,170,1065.9,187.9z M1169.3,94.7
	c33.1,36.6,54.6,79,64.3,127.1c9.7,48.2,7.1,94.2-7.7,138c-3.4,10.3-9.9,17.9-19.4,22.9c-9.5,5-19.4,5.7-29.7,2.3
	c-10.3-3.4-17.9-9.9-22.9-19.4c-5-9.5-5.9-19.4-2.9-29.7c10.7-31.2,12.6-64,5.7-98.3s-22.1-64.4-45.7-90.3
	c-23.6-26.3-51.8-44.5-84.6-54.6c-32.8-10.1-65.7-11.7-98.9-4.9c-10.7,2.3-20.6,0.5-29.7-5.4c-9.1-5.9-14.9-14.2-17.1-24.9
	s-0.5-20.5,5.4-29.4c5.9-9,14.2-14.6,24.9-16.9c46.9-9.9,93.3-7.7,139.4,6.6C1096.5,32.2,1136.1,57.8,1169.3,94.7z"/>
</svg>
